<svg width="30" height="30" viewBox="0 0 30 30" fill="none" xmlns="http://www.w3.org/2000/svg">
<path d="M20.2813 10H23C23.6903 10 24.25 9.44033 24.25 8.75C24.25 8.05967 23.6903 7.5 23 7.5H20.2813C17.3692 7.5 15 9.86917 15 12.7813V15H13.25C12.5597 15 12 15.5597 12 16.25C12 16.9403 12.5597 17.5 13.25 17.5H15V28C15 28.6903 15.5597 29.25 16.25 29.25C16.9403 29.25 17.5 28.6903 17.5 28V17.5H22.5C23.1903 17.5 23.75 16.9403 23.75 16.25C23.75 15.5597 23.1903 15 22.5 15H17.5V12.7813C17.5 11.2477 18.7477 10 20.2813 10Z" fill="#51777C"/>
<path d="M22.5 30H7.5C3.3645 30 0 26.6355 0 22.5V7.5C0 3.3645 3.3645 0 7.5 0H22.5C26.6355 0 30 3.3645 30 7.5V22.5C30 26.6355 26.6355 30 22.5 30ZM7.5 2.5C4.743 2.5 2.5 4.743 2.5 7.5V22.5C2.5 25.257 4.743 27.5 7.5 27.5H22.5C25.257 27.5 27.5 25.257 27.5 22.5V7.5C27.5 4.743 25.257 2.5 22.5 2.5H7.5Z" fill="#068FA4"/>
</svg>
