<svg width="58" height="35" viewBox="0 0 58 35" fill="none" xmlns="http://www.w3.org/2000/svg">
<path d="M0.44308 34.0315V10.0425H6.17148V34.0315H0.44308ZM3.3231 6.6378C2.41584 6.6378 1.63518 6.34107 0.981106 5.74759C0.327035 5.1437 0 4.42007 0 3.57671C0 2.72294 0.327035 1.99931 0.981106 1.40583C1.63518 0.801944 2.41584 0.5 3.3231 0.5C4.24091 0.5 5.02158 0.801944 5.6651 1.40583C6.31917 1.99931 6.6462 2.72294 6.6462 3.57671C6.6462 4.42007 6.31917 5.1437 5.6651 5.74759C5.02158 6.34107 4.24091 6.6378 3.3231 6.6378Z" fill="white"/>
<path d="M17.2841 26.5037L17.2683 19.6787H18.1861L26.9211 10.0425H33.6148L22.8701 21.8496H21.6832L17.2841 26.5037ZM12.0621 34.0315V2.04616H17.7905V34.0315H12.0621ZM27.3167 34.0315L19.4045 23.1146L23.2657 19.1321L34.1686 34.0315H27.3167Z" fill="white"/>
<path d="M47.192 34.5C44.7551 34.5 42.6504 34.0002 40.8781 33.0007C39.1163 31.9907 37.7607 30.5643 36.8113 28.7214C35.8618 26.8681 35.3871 24.6868 35.3871 22.1775C35.3871 19.7099 35.8618 17.5443 36.8113 15.6805C37.7713 13.8064 39.1111 12.3487 40.8306 11.3075C42.5502 10.2559 44.5704 9.73013 46.8913 9.73013C48.3894 9.73013 49.803 9.96961 51.1323 10.4486C52.472 10.9171 53.6536 11.6459 54.6769 12.635C55.7108 13.6242 56.5231 14.884 57.1138 16.4146C57.7046 17.9347 58 19.7464 58 21.8496V23.5831H38.0772V19.7724H52.509C52.4984 18.6896 52.2611 17.7265 51.7969 16.8831C51.3327 16.0293 50.6839 15.3578 49.8505 14.8684C49.0276 14.379 48.0676 14.1344 46.9705 14.1344C45.7995 14.1344 44.7709 14.4155 43.8847 14.9777C42.9986 15.5296 42.3076 16.2584 41.8117 17.1642C41.3265 18.0596 41.0786 19.0436 41.068 20.116V23.4426C41.068 24.8378 41.3265 26.0351 41.8434 27.0347C42.3603 28.0238 43.083 28.7839 44.0113 29.3149C44.9397 29.8355 46.0263 30.0958 47.2711 30.0958C48.1045 30.0958 48.8588 29.9812 49.534 29.7522C50.2092 29.5127 50.7947 29.1639 51.2905 28.7058C51.7863 28.2477 52.1608 27.6802 52.414 27.0034L57.7626 27.5969C57.425 28.9921 56.7815 30.2103 55.8321 31.2515C54.8932 32.2823 53.6905 33.084 52.2241 33.6566C50.7577 34.2189 49.0804 34.5 47.192 34.5Z" fill="white"/>
</svg>
