<svg width="40" height="40" viewBox="0 0 40 40" fill="none" xmlns="http://www.w3.org/2000/svg">
<path d="M19.0978 22.9348L9.77516 33.7387C9.52816 34.0218 9.1815 34.1668 8.83283 34.1668C8.54116 34.1668 8.24833 34.0653 8.0115 33.8587C7.49133 33.4047 7.43766 32.6152 7.89166 32.095L17.511 20.9513L19.0978 22.9348ZM22.4892 19.0488L32.1085 7.90516C32.5625 7.385 32.5088 6.5955 31.9887 6.1415C31.4687 5.6875 30.6787 5.74116 30.225 6.26133L20.9023 17.0652L22.4892 19.0488Z" fill="#597D80"/>
<path d="M33.4166 34.1666H26.9166C26.5368 34.1666 26.1778 33.9939 25.9406 33.6975L5.60728 7.86412C5.30711 7.48895 5.24861 6.97478 5.45678 6.54178C5.66494 6.10878 6.10278 5.83328 6.58328 5.83328H13.0833C13.4631 5.83328 13.8221 6.00595 14.0593 6.30245L34.3926 32.1358C34.6928 32.511 34.7513 33.0251 34.5431 33.4581C34.3349 33.8911 33.8971 34.1666 33.4166 34.1666ZM27.5174 31.6666H30.8158L12.4824 8.33328H9.18411L27.5174 31.6666Z" fill="#0591A6"/>
</svg>
