<svg width="167" height="112" viewBox="0 0 167 112" fill="none" xmlns="http://www.w3.org/2000/svg">
<path d="M165.388 1.92308C162.071 0.530181 158.751 0.000244244 155.433 0.000244244C144.899 -0.000611874 134.367 5.33728 123.833 5.33728C121.191 5.33728 118.551 5.00168 115.909 4.16269C115.613 4.06852 115.315 4.024 115.024 4.024C113.552 4.024 112.266 5.16435 112.266 6.74731V33.9085C112.266 34.9898 112.884 36.0145 113.877 36.4306C117.195 37.8244 120.515 38.3543 123.833 38.3543C134.367 38.3543 144.9 33.0164 155.434 33.0164C158.076 33.0164 160.716 33.352 163.357 34.191C163.654 34.2852 163.952 34.3297 164.243 34.3297C165.714 34.3297 167.001 33.1894 167.001 31.6064V4.44606C167 3.36393 166.381 2.34001 165.388 1.92308ZM139.633 27.396C135.854 27.396 132.791 23.7156 132.791 19.1773C132.791 14.6381 135.855 10.9585 139.633 10.9585C143.411 10.9585 146.475 14.6381 146.475 19.1773C146.475 23.7173 143.41 27.396 139.633 27.396Z" fill="#0067F5"/>
<path d="M100.36 6.20454L5.12648 106.469C3.19266 108.505 4.63591 111.866 7.44392 111.866H55.9474C56.8304 111.866 57.6741 111.501 58.2783 110.857L100.346 66.0191C102.328 63.9065 105.873 65.3091 105.873 68.206V73.1126C105.873 74.8778 107.304 76.3087 109.069 76.3087H149.821C151.586 76.3087 153.017 74.8778 153.017 73.1126V48.3422C153.017 46.577 151.586 45.1461 149.821 45.1461H109.069C107.304 45.1461 105.873 43.7151 105.873 41.9499V8.40569C105.873 5.51838 102.348 4.11105 100.36 6.20454Z" fill="#0067F5"/>
<path d="M149.82 83.1008H109.069C107.304 83.1008 105.873 84.5318 105.873 86.297V108.67C105.873 110.435 107.304 111.866 109.069 111.866H149.82C151.586 111.866 153.017 110.435 153.017 108.67V86.297C153.017 84.5318 151.586 83.1008 149.82 83.1008Z" fill="#0067F5"/>
</svg>
