<svg width="452" height="45" viewBox="0 0 452 45" fill="none" xmlns="http://www.w3.org/2000/svg">
<path d="M0.818 4.8H15.446C18.942 4.8 22.024 5.47466 24.692 6.824C27.3907 8.14267 29.476 10.0133 30.948 12.436C32.4507 14.8587 33.202 17.68 33.202 20.9C33.202 24.12 32.4507 26.9413 30.948 29.364C29.476 31.7867 27.3907 33.6727 24.692 35.022C22.024 36.3407 18.942 37 15.446 37H0.818V4.8ZM15.078 30.882C18.298 30.882 20.8587 29.9927 22.76 28.214C24.692 26.4047 25.658 23.9667 25.658 20.9C25.658 17.8333 24.692 15.4107 22.76 13.632C20.8587 11.8227 18.298 10.918 15.078 10.918H8.27V30.882H15.078ZM38.3159 12.252H45.4919V37H38.3159V12.252ZM41.9039 8.802C40.5852 8.802 39.5119 8.41867 38.6839 7.652C37.8559 6.88533 37.4419 5.93466 37.4419 4.8C37.4419 3.66533 37.8559 2.71466 38.6839 1.948C39.5119 1.18133 40.5852 0.797997 41.9039 0.797997C43.2226 0.797997 44.2959 1.166 45.1239 1.902C45.9519 2.638 46.3659 3.558 46.3659 4.662C46.3659 5.858 45.9519 6.85467 45.1239 7.652C44.2959 8.41867 43.2226 8.802 41.9039 8.802ZM76.7158 12.252L66.2738 37H58.8678L48.4718 12.252H55.8778L62.7318 29.088L69.8158 12.252H76.7158ZM103.212 24.718C103.212 24.81 103.166 25.454 103.074 26.65H84.3522C84.6895 28.1833 85.4869 29.3947 86.7442 30.284C88.0015 31.1733 89.5655 31.618 91.4362 31.618C92.7242 31.618 93.8589 31.434 94.8402 31.066C95.8522 30.6673 96.7875 30.054 97.6462 29.226L101.464 33.366C99.1335 36.034 95.7295 37.368 91.2522 37.368C88.4615 37.368 85.9929 36.8313 83.8462 35.758C81.6995 34.654 80.0435 33.136 78.8782 31.204C77.7129 29.272 77.1302 27.0793 77.1302 24.626C77.1302 22.2033 77.6975 20.026 78.8322 18.094C79.9975 16.1313 81.5769 14.6133 83.5702 13.54C85.5942 12.436 87.8482 11.884 90.3322 11.884C92.7549 11.884 94.9475 12.4053 96.9102 13.448C98.8729 14.4907 100.406 15.9933 101.51 17.956C102.645 19.888 103.212 22.142 103.212 24.718ZM90.3782 17.312C88.7529 17.312 87.3882 17.772 86.2842 18.692C85.1802 19.612 84.5055 20.8693 84.2602 22.464H96.4502C96.2049 20.9 95.5302 19.658 94.4262 18.738C93.3222 17.7873 91.9729 17.312 90.3782 17.312Z" fill="url(#paint0_linear_2_40)"/>
<path d="M119.326 9H125.806V37H119.326V9ZM145.091 15.16C147.758 15.16 149.904 15.96 151.531 17.56C153.184 19.16 154.011 21.5333 154.011 24.68V37H147.771V25.64C147.771 23.9333 147.398 22.6667 146.651 21.84C145.904 20.9867 144.824 20.56 143.411 20.56C141.838 20.56 140.584 21.0533 139.651 22.04C138.718 23 138.251 24.44 138.251 26.36V37H132.011V15.48H137.971V18C138.798 17.0933 139.824 16.4 141.051 15.92C142.278 15.4133 143.624 15.16 145.091 15.16ZM173.547 35.96C172.934 36.4133 172.174 36.76 171.267 37C170.387 37.2133 169.454 37.32 168.467 37.32C165.907 37.32 163.92 36.6667 162.507 35.36C161.12 34.0533 160.427 32.1333 160.427 29.6V20.76H157.107V15.96H160.427V10.72H166.667V15.96H172.027V20.76H166.667V29.52C166.667 30.4267 166.894 31.1333 167.347 31.64C167.827 32.12 168.494 32.36 169.347 32.36C170.334 32.36 171.174 32.0933 171.867 31.56L173.547 35.96ZM186.626 37.32C184.359 37.32 182.319 36.8533 180.506 35.92C178.719 34.96 177.319 33.64 176.306 31.96C175.293 30.28 174.786 28.3733 174.786 26.24C174.786 24.1067 175.293 22.2 176.306 20.52C177.319 18.84 178.719 17.5333 180.506 16.6C182.319 15.64 184.359 15.16 186.626 15.16C188.893 15.16 190.919 15.64 192.706 16.6C194.493 17.5333 195.893 18.84 196.906 20.52C197.919 22.2 198.426 24.1067 198.426 26.24C198.426 28.3733 197.919 30.28 196.906 31.96C195.893 33.64 194.493 34.96 192.706 35.92C190.919 36.8533 188.893 37.32 186.626 37.32ZM186.626 32.2C188.226 32.2 189.533 31.6667 190.546 30.6C191.586 29.5067 192.106 28.0533 192.106 26.24C192.106 24.4267 191.586 22.9867 190.546 21.92C189.533 20.8267 188.226 20.28 186.626 20.28C185.026 20.28 183.706 20.8267 182.666 21.92C181.626 22.9867 181.106 24.4267 181.106 26.24C181.106 28.0533 181.626 29.5067 182.666 30.6C183.706 31.6667 185.026 32.2 186.626 32.2ZM220.165 14.28H211.205V9H235.605V14.28H226.645V37H220.165V14.28ZM251.731 15.16C254.398 15.16 256.545 15.96 258.171 17.56C259.825 19.16 260.651 21.5333 260.651 24.68V37H254.411V25.64C254.411 23.9333 254.038 22.6667 253.291 21.84C252.545 20.9867 251.465 20.56 250.051 20.56C248.478 20.56 247.225 21.0533 246.291 22.04C245.358 23 244.891 24.44 244.891 26.36V37H238.651V7.32H244.891V17.72C245.718 16.8933 246.718 16.2667 247.891 15.84C249.065 15.3867 250.345 15.16 251.731 15.16ZM287.622 26.32C287.622 26.4 287.582 26.96 287.502 28H271.222C271.515 29.3333 272.209 30.3867 273.302 31.16C274.395 31.9333 275.755 32.32 277.382 32.32C278.502 32.32 279.489 32.16 280.342 31.84C281.222 31.4933 282.035 30.96 282.782 30.24L286.102 33.84C284.075 36.16 281.115 37.32 277.222 37.32C274.795 37.32 272.649 36.8533 270.782 35.92C268.915 34.96 267.475 33.64 266.462 31.96C265.449 30.28 264.942 28.3733 264.942 26.24C264.942 24.1333 265.435 22.24 266.422 20.56C267.435 18.8533 268.809 17.5333 270.542 16.6C272.302 15.64 274.262 15.16 276.422 15.16C278.529 15.16 280.435 15.6133 282.142 16.52C283.849 17.4267 285.182 18.7333 286.142 20.44C287.129 22.12 287.622 24.08 287.622 26.32ZM276.462 19.88C275.049 19.88 273.862 20.28 272.902 21.08C271.942 21.88 271.355 22.9733 271.142 24.36H281.742C281.529 23 280.942 21.92 279.982 21.12C279.022 20.2933 277.849 19.88 276.462 19.88ZM303.545 9H316.265C319.305 9 321.985 9.58667 324.305 10.76C326.651 11.9067 328.465 13.5333 329.745 15.64C331.051 17.7467 331.705 20.2 331.705 23C331.705 25.8 331.051 28.2533 329.745 30.36C328.465 32.4667 326.651 34.1067 324.305 35.28C321.985 36.4267 319.305 37 316.265 37H303.545V9ZM315.945 31.68C318.745 31.68 320.971 30.9067 322.625 29.36C324.305 27.7867 325.145 25.6667 325.145 23C325.145 20.3333 324.305 18.2267 322.625 16.68C320.971 15.1067 318.745 14.32 315.945 14.32H310.025V31.68H315.945ZM357.231 26.32C357.231 26.4 357.191 26.96 357.111 28H340.831C341.125 29.3333 341.818 30.3867 342.911 31.16C344.005 31.9333 345.365 32.32 346.991 32.32C348.111 32.32 349.098 32.16 349.951 31.84C350.831 31.4933 351.645 30.96 352.391 30.24L355.711 33.84C353.685 36.16 350.725 37.32 346.831 37.32C344.405 37.32 342.258 36.8533 340.391 35.92C338.525 34.96 337.085 33.64 336.071 31.96C335.058 30.28 334.551 28.3733 334.551 26.24C334.551 24.1333 335.045 22.24 336.031 20.56C337.045 18.8533 338.418 17.5333 340.151 16.6C341.911 15.64 343.871 15.16 346.031 15.16C348.138 15.16 350.045 15.6133 351.751 16.52C353.458 17.4267 354.791 18.7333 355.751 20.44C356.738 22.12 357.231 24.08 357.231 26.32ZM346.071 19.88C344.658 19.88 343.471 20.28 342.511 21.08C341.551 21.88 340.965 22.9733 340.751 24.36H351.351C351.138 23 350.551 21.92 349.591 21.12C348.631 20.2933 347.458 19.88 346.071 19.88ZM374.106 15.16C376.106 15.16 377.919 15.6267 379.546 16.56C381.199 17.4667 382.493 18.76 383.426 20.44C384.359 22.0933 384.826 24.0267 384.826 26.24C384.826 28.4533 384.359 30.4 383.426 32.08C382.493 33.7333 381.199 35.0267 379.546 35.96C377.919 36.8667 376.106 37.32 374.106 37.32C371.359 37.32 369.199 36.4533 367.626 34.72V44.76H361.386V15.48H367.346V17.96C368.893 16.0933 371.146 15.16 374.106 15.16ZM373.026 32.2C374.626 32.2 375.933 31.6667 376.946 30.6C377.986 29.5067 378.506 28.0533 378.506 26.24C378.506 24.4267 377.986 22.9867 376.946 21.92C375.933 20.8267 374.626 20.28 373.026 20.28C371.426 20.28 370.106 20.8267 369.066 21.92C368.053 22.9867 367.546 24.4267 367.546 26.24C367.546 28.0533 368.053 29.5067 369.066 30.6C370.106 31.6667 371.426 32.2 373.026 32.2ZM402.883 35.96C402.27 36.4133 401.51 36.76 400.603 37C399.723 37.2133 398.79 37.32 397.803 37.32C395.243 37.32 393.256 36.6667 391.843 35.36C390.456 34.0533 389.763 32.1333 389.763 29.6V20.76H386.443V15.96H389.763V10.72H396.003V15.96H401.363V20.76H396.003V29.52C396.003 30.4267 396.23 31.1333 396.683 31.64C397.163 32.12 397.83 32.36 398.683 32.36C399.67 32.36 400.51 32.0933 401.203 31.56L402.883 35.96ZM419.466 15.16C422.133 15.16 424.279 15.96 425.906 17.56C427.559 19.16 428.386 21.5333 428.386 24.68V37H422.146V25.64C422.146 23.9333 421.773 22.6667 421.026 21.84C420.279 20.9867 419.199 20.56 417.786 20.56C416.213 20.56 414.959 21.0533 414.026 22.04C413.093 23 412.626 24.44 412.626 26.36V37H406.386V7.32H412.626V17.72C413.453 16.8933 414.453 16.2667 415.626 15.84C416.799 15.3867 418.079 15.16 419.466 15.16ZM441.282 37.32C439.495 37.32 437.749 37.1067 436.042 36.68C434.335 36.2267 432.975 35.6667 431.962 35L434.042 30.52C435.002 31.1333 436.162 31.64 437.522 32.04C438.882 32.4133 440.215 32.6 441.522 32.6C444.162 32.6 445.482 31.9467 445.482 30.64C445.482 30.0267 445.122 29.5867 444.402 29.32C443.682 29.0533 442.575 28.8267 441.082 28.64C439.322 28.3733 437.869 28.0667 436.722 27.72C435.575 27.3733 434.575 26.76 433.722 25.88C432.895 25 432.482 23.7467 432.482 22.12C432.482 20.76 432.869 19.56 433.642 18.52C434.442 17.4533 435.589 16.6267 437.082 16.04C438.602 15.4533 440.389 15.16 442.442 15.16C443.962 15.16 445.469 15.3333 446.962 15.68C448.482 16 449.735 16.4533 450.722 17.04L448.642 21.48C446.749 20.4133 444.682 19.88 442.442 19.88C441.109 19.88 440.109 20.0667 439.442 20.44C438.775 20.8133 438.442 21.2933 438.442 21.88C438.442 22.5467 438.802 23.0133 439.522 23.28C440.242 23.5467 441.389 23.8 442.962 24.04C444.722 24.3333 446.162 24.6533 447.282 25C448.402 25.32 449.375 25.92 450.202 26.8C451.029 27.68 451.442 28.9067 451.442 30.48C451.442 31.8133 451.042 33 450.242 34.04C449.442 35.08 448.269 35.8933 446.722 36.48C445.202 37.04 443.389 37.32 441.282 37.32Z" fill="white"/>
<defs>
<linearGradient id="paint0_linear_2_40" x1="-10.2217" y1="3.85715" x2="156.109" y2="41.0415" gradientUnits="userSpaceOnUse">
<stop stop-color="#C0B7E8"/>
<stop offset="1" stop-color="#8176AF"/>
</linearGradient>
</defs>
</svg>
