<svg width="401" height="47" viewBox="0 0 401 47" fill="none" xmlns="http://www.w3.org/2000/svg">
<path d="M15.88 37.48C12.9733 37.48 10.3467 36.8533 8 35.6C5.68 34.3467 3.85333 32.6267 2.52 30.44C1.21333 28.2267 0.56 25.7467 0.56 23C0.56 20.2533 1.21333 17.7867 2.52 15.6C3.85333 13.3867 5.68 11.6533 8 10.4C10.3467 9.14667 12.9733 8.52 15.88 8.52C18.7867 8.52 21.4 9.14667 23.72 10.4C26.04 11.6533 27.8667 13.3867 29.2 15.6C30.5333 17.7867 31.2 20.2533 31.2 23C31.2 25.7467 30.5333 28.2267 29.2 30.44C27.8667 32.6267 26.04 34.3467 23.72 35.6C21.4 36.8533 18.7867 37.48 15.88 37.48ZM15.88 31.96C17.5333 31.96 19.0267 31.5867 20.36 30.84C21.6933 30.0667 22.7333 29 23.48 27.64C24.2533 26.28 24.64 24.7333 24.64 23C24.64 21.2667 24.2533 19.72 23.48 18.36C22.7333 17 21.6933 15.9467 20.36 15.2C19.0267 14.4267 17.5333 14.04 15.88 14.04C14.2267 14.04 12.7333 14.4267 11.4 15.2C10.0667 15.9467 9.01333 17 8.24 18.36C7.49333 19.72 7.12 21.2667 7.12 23C7.12 24.7333 7.49333 26.28 8.24 27.64C9.01333 29 10.0667 30.0667 11.4 30.84C12.7333 31.5867 14.2267 31.96 15.88 31.96ZM42.47 15.96H47.99V20.76H42.63V37H36.39V20.76H33.07V15.96H36.39V15C36.39 12.5467 37.11 10.6 38.55 9.16C40.0167 7.72 42.07 7 44.71 7C45.6433 7 46.5233 7.10666 47.35 7.32C48.2033 7.50667 48.91 7.78667 49.47 8.16L47.83 12.68C47.11 12.1733 46.27 11.92 45.31 11.92C43.4167 11.92 42.47 12.96 42.47 15.04V15.96Z" fill="white"/>
<path d="M94.3229 4.8L80.3849 37H73.0249L59.1329 4.8H67.1829L76.9809 27.8L86.9169 4.8H94.3229ZM96.9546 12.252H104.131V37H96.9546V12.252ZM100.543 8.802C99.2239 8.802 98.1506 8.41867 97.3226 7.652C96.4946 6.88533 96.0806 5.93466 96.0806 4.8C96.0806 3.66533 96.4946 2.71466 97.3226 1.948C98.1506 1.18133 99.2239 0.797997 100.543 0.797997C101.861 0.797997 102.935 1.166 103.763 1.902C104.591 2.638 105.005 3.558 105.005 4.662C105.005 5.858 104.591 6.85467 103.763 7.652C102.935 8.41867 101.861 8.802 100.543 8.802ZM117.645 15.518C118.503 14.322 119.653 13.4173 121.095 12.804C122.567 12.1907 124.253 11.884 126.155 11.884V18.508C125.357 18.4467 124.821 18.416 124.545 18.416C122.49 18.416 120.88 18.9987 119.715 20.164C118.549 21.2987 117.967 23.016 117.967 25.316V37H110.791V12.252H117.645V15.518ZM147.237 35.804C146.532 36.3253 145.658 36.724 144.615 37C143.603 37.2453 142.53 37.368 141.395 37.368C138.451 37.368 136.166 36.6167 134.541 35.114C132.946 33.6113 132.149 31.4033 132.149 28.49V18.324H128.331V12.804H132.149V6.778H139.325V12.804H145.489V18.324H139.325V28.398C139.325 29.4407 139.586 30.2533 140.107 30.836C140.659 31.388 141.426 31.664 142.407 31.664C143.542 31.664 144.508 31.3573 145.305 30.744L147.237 35.804ZM176.197 12.252V37H169.389V34.056C168.438 35.1293 167.304 35.9573 165.985 36.54C164.666 37.092 163.24 37.368 161.707 37.368C158.456 37.368 155.88 36.4327 153.979 34.562C152.078 32.6913 151.127 29.916 151.127 26.236V12.252H158.303V25.178C158.303 29.1647 159.974 31.158 163.317 31.158C165.034 31.158 166.414 30.606 167.457 29.502C168.5 28.3673 169.021 26.696 169.021 24.488V12.252H176.197ZM192.827 11.884C196.661 11.884 199.605 12.804 201.659 14.644C203.714 16.4533 204.741 19.198 204.741 22.878V37H198.025V33.918C196.676 36.218 194.161 37.368 190.481 37.368C188.58 37.368 186.924 37.046 185.513 36.402C184.133 35.758 183.075 34.8687 182.339 33.734C181.603 32.5993 181.235 31.3113 181.235 29.87C181.235 27.57 182.094 25.7607 183.811 24.442C185.559 23.1233 188.243 22.464 191.861 22.464H197.565C197.565 20.9 197.09 19.704 196.139 18.876C195.189 18.0173 193.763 17.588 191.861 17.588C190.543 17.588 189.239 17.8027 187.951 18.232C186.694 18.6307 185.621 19.1827 184.731 19.888L182.155 14.874C183.505 13.9233 185.115 13.1873 186.985 12.666C188.887 12.1447 190.834 11.884 192.827 11.884ZM192.275 32.538C193.502 32.538 194.591 32.262 195.541 31.71C196.492 31.1273 197.167 30.284 197.565 29.18V26.65H192.643C189.699 26.65 188.227 27.616 188.227 29.548C188.227 30.468 188.58 31.204 189.285 31.756C190.021 32.2773 191.018 32.538 192.275 32.538ZM211.236 2.868H218.412V37H211.236V2.868ZM259.121 37L252.911 28.03H252.543H246.057V37H238.605V4.8H252.543C255.395 4.8 257.864 5.27533 259.949 6.226C262.065 7.17667 263.69 8.526 264.825 10.274C265.96 12.022 266.527 14.092 266.527 16.484C266.527 18.876 265.944 20.946 264.779 22.694C263.644 24.4113 262.019 25.73 259.903 26.65L267.125 37H259.121ZM258.983 16.484C258.983 14.6747 258.4 13.2947 257.235 12.344C256.07 11.3627 254.368 10.872 252.129 10.872H246.057V22.096H252.129C254.368 22.096 256.07 21.6053 257.235 20.624C258.4 19.6427 258.983 18.2627 258.983 16.484ZM296.167 24.718C296.167 24.81 296.121 25.454 296.029 26.65H277.307C277.645 28.1833 278.442 29.3947 279.699 30.284C280.957 31.1733 282.521 31.618 284.391 31.618C285.679 31.618 286.814 31.434 287.795 31.066C288.807 30.6673 289.743 30.054 290.601 29.226L294.419 33.366C292.089 36.034 288.685 37.368 284.207 37.368C281.417 37.368 278.948 36.8313 276.801 35.758C274.655 34.654 272.999 33.136 271.833 31.204C270.668 29.272 270.085 27.0793 270.085 24.626C270.085 22.2033 270.653 20.026 271.787 18.094C272.953 16.1313 274.532 14.6133 276.525 13.54C278.549 12.436 280.803 11.884 283.287 11.884C285.71 11.884 287.903 12.4053 289.865 13.448C291.828 14.4907 293.361 15.9933 294.465 17.956C295.6 19.888 296.167 22.142 296.167 24.718ZM283.333 17.312C281.708 17.312 280.343 17.772 279.239 18.692C278.135 19.612 277.461 20.8693 277.215 22.464H289.405C289.16 20.9 288.485 19.658 287.381 18.738C286.277 17.7873 284.928 17.312 283.333 17.312ZM310.253 11.884C314.086 11.884 317.03 12.804 319.085 14.644C321.14 16.4533 322.167 19.198 322.167 22.878V37H315.451V33.918C314.102 36.218 311.587 37.368 307.907 37.368C306.006 37.368 304.35 37.046 302.939 36.402C301.559 35.758 300.501 34.8687 299.765 33.734C299.029 32.5993 298.661 31.3113 298.661 29.87C298.661 27.57 299.52 25.7607 301.237 24.442C302.985 23.1233 305.668 22.464 309.287 22.464H314.991C314.991 20.9 314.516 19.704 313.565 18.876C312.614 18.0173 311.188 17.588 309.287 17.588C307.968 17.588 306.665 17.8027 305.377 18.232C304.12 18.6307 303.046 19.1827 302.157 19.888L299.581 14.874C300.93 13.9233 302.54 13.1873 304.411 12.666C306.312 12.1447 308.26 11.884 310.253 11.884ZM309.701 32.538C310.928 32.538 312.016 32.262 312.967 31.71C313.918 31.1273 314.592 30.284 314.991 29.18V26.65H310.069C307.125 26.65 305.653 27.616 305.653 29.548C305.653 30.468 306.006 31.204 306.711 31.756C307.447 32.2773 308.444 32.538 309.701 32.538ZM328.662 2.868H335.838V37H328.662V2.868ZM342.498 12.252H349.674V37H342.498V12.252ZM346.086 8.802C344.767 8.802 343.694 8.41867 342.866 7.652C342.038 6.88533 341.624 5.93466 341.624 4.8C341.624 3.66533 342.038 2.71466 342.866 1.948C343.694 1.18133 344.767 0.797997 346.086 0.797997C347.404 0.797997 348.478 1.166 349.306 1.902C350.134 2.638 350.548 3.558 350.548 4.662C350.548 5.858 350.134 6.85467 349.306 7.652C348.478 8.41867 347.404 8.802 346.086 8.802ZM372.295 35.804C371.59 36.3253 370.716 36.724 369.673 37C368.661 37.2453 367.588 37.368 366.453 37.368C363.509 37.368 361.225 36.6167 359.599 35.114C358.005 33.6113 357.207 31.4033 357.207 28.49V18.324H353.389V12.804H357.207V6.778H364.383V12.804H370.547V18.324H364.383V28.398C364.383 29.4407 364.644 30.2533 365.165 30.836C365.717 31.388 366.484 31.664 367.465 31.664C368.6 31.664 369.566 31.3573 370.363 30.744L372.295 35.804ZM400.439 12.252L389.261 38.518C388.126 41.37 386.715 43.3787 385.029 44.544C383.373 45.7093 381.364 46.292 379.003 46.292C377.715 46.292 376.442 46.0927 375.185 45.694C373.927 45.2953 372.9 44.7433 372.102 44.038L374.725 38.932C375.277 39.4227 375.905 39.806 376.611 40.082C377.347 40.358 378.067 40.496 378.773 40.496C379.754 40.496 380.551 40.2507 381.165 39.76C381.778 39.3 382.33 38.518 382.821 37.414L382.913 37.184L372.194 12.252H379.601L386.547 29.042L393.539 12.252H400.439Z" fill="url(#paint0_linear_2_39)"/>
<defs>
<linearGradient id="paint0_linear_2_39" x1="416.202" y1="-7.00001" x2="70.3438" y2="36.2902" gradientUnits="userSpaceOnUse">
<stop stop-color="#C0B7E8"/>
<stop offset="1" stop-color="#8176AF"/>
</linearGradient>
</defs>
</svg>
